<?xml version="1.0" standalone="no"?>
<!DOCTYPE svg PUBLIC "-//W3C//DTD SVG 20010904//EN"
 "http://www.w3.org/TR/2001/REC-SVG-20010904/DTD/svg10.dtd">
<svg version="1.0" xmlns="http://www.w3.org/2000/svg"
 width="237.000000pt" height="237.000000pt" viewBox="0 0 237.000000 237.000000"
 preserveAspectRatio="xMidYMid meet">
<metadata>
Created by potrace 1.11, written by Peter Selinger 2001-2013
</metadata>
<g transform="translate(0.000000,237.000000) scale(0.100000,-0.100000)"
fill="#000000" stroke="none">
<path d="M1056 2039 c-115 -12 -230 -37 -321 -70 -84 -31 -181 -91 -199 -124
-6 -11 -14 -22 -18 -25 -28 -21 -31 -78 -32 -563 -1 -273 1 -497 4 -497 3 0 7
-12 8 -27 1 -15 8 -30 15 -35 6 -4 8 -8 3 -8 -5 0 1 -8 12 -19 12 -10 19 -21
15 -25 -3 -3 -2 -6 4 -6 6 0 30 -15 54 -34 23 -19 47 -32 51 -30 4 3 8 1 8 -4
0 -5 10 -13 23 -17 30 -10 36 -12 42 -15 3 -1 8 -3 13 -4 4 -1 12 -4 17 -7 6
-4 24 -10 40 -14 17 -5 35 -9 40 -11 6 -2 20 -5 33 -8 13 -3 31 -7 40 -10 36
-11 221 -29 292 -28 57 0 186 9 230 16 83 13 135 23 135 27 0 1 10 3 22 4 12
1 30 6 40 10 10 4 23 9 30 11 7 1 38 14 70 30 32 15 62 26 66 25 4 0 10 6 13
14 4 8 11 15 16 15 13 0 59 47 84 85 18 28 19 53 20 555 1 572 2 555 -57 612
-135 131 -498 209 -813 177z"/>
</g>
</svg>
