<?xml version="1.0" encoding="utf-8"?>
<!-- Generator: Adobe Illustrator 22.0.1, SVG Export Plug-In . SVG Version: 6.00 Build 0)  -->
<svg version="1.1" id="Layer_1" xmlns="http://www.w3.org/2000/svg" xmlns:xlink="http://www.w3.org/1999/xlink" x="0px" y="0px"
	 viewBox="0 0 595.3 726.1" style="enable-background:new 0 0 595.3 726.1;" xml:space="preserve">
<style type="text/css">
	.st0{opacity:0.32;}
	.st1{fill:#DBD5F5;}
</style>
<g class="st0">
	<g>
		<circle class="st1" cx="493" cy="84.9" r="5.3"/>
	</g>
	<g>
		<circle class="st1" cx="473.7" cy="224" r="6.4"/>
	</g>
	<g>
		<circle class="st1" cx="457.6" cy="83" r="3.6"/>
	</g>
	<g>
		<circle class="st1" cx="431.7" cy="171.6" r="3.4"/>
	</g>
	<g>
		<circle class="st1" cx="413.5" cy="182.9" r="6.1"/>
	</g>
	<g>
		<circle class="st1" cx="188.4" cy="114.6" r="4.5"/>
	</g>
	<g>
		<circle class="st1" cx="390.9" cy="164.4" r="4"/>
	</g>
	<g>
		<circle class="st1" cx="377.6" cy="158.3" r="5.6"/>
	</g>
	<g>
		<circle class="st1" cx="351.4" cy="109.1" r="5.5"/>
	</g>
	<g>
		<circle class="st1" cx="142" cy="103.6" r="6.1"/>
	</g>
	<g>
		<circle class="st1" cx="290.3" cy="94.3" r="5.3"/>
	</g>
	<g>
		<circle class="st1" cx="128.2" cy="114.6" r="4.4"/>
	</g>
	<g>
		<circle class="st1" cx="254.1" cy="194.2" r="6.5"/>
	</g>
	<g>
		<circle class="st1" cx="242.2" cy="202.2" r="4.9"/>
	</g>
	<g>
		<circle class="st1" cx="229.4" cy="144.7" r="5.4"/>
	</g>
	<g>
		<circle class="st1" cx="209.2" cy="197.1" r="5.9"/>
	</g>
	<g>
		<circle class="st1" cx="188.4" cy="203.3" r="4.8"/>
	</g>
	<g>
		<circle class="st1" cx="242.2" cy="110.1" r="3"/>
	</g>
	<g>
		<circle class="st1" cx="165.1" cy="168.5" r="4.6"/>
	</g>
	<g>
		<circle class="st1" cx="133.2" cy="168.1" r="5"/>
	</g>
	<g>
		<circle class="st1" cx="108.9" cy="225.9" r="4.1"/>
	</g>
	<g>
		<circle class="st1" cx="83.6" cy="205.9" r="5.7"/>
	</g>
	<g>
		<circle class="st1" cx="70.3" cy="122.4" r="4"/>
	</g>
	<g>
		<circle class="st1" cx="60.9" cy="238.8" r="3.4"/>
	</g>
	<g>
		<g>
			<circle class="st1" cx="399.9" cy="625" r="3.7"/>
		</g>
		<g>
			<circle class="st1" cx="430.4" cy="610.1" r="4.5"/>
		</g>
		<g>
			<circle class="st1" cx="467.1" cy="634" r="4.5"/>
		</g>
		<g>
			<circle class="st1" cx="501" cy="603" r="5.5"/>
		</g>
		<g>
			<circle class="st1" cx="487.6" cy="532.4" r="5.3"/>
		</g>
		<g>
			<circle class="st1" cx="566" cy="636.5" r="5"/>
		</g>
		<g>
			<circle class="st1" cx="548.3" cy="543.3" r="6.4"/>
		</g>
		<g>
			<circle class="st1" cx="561.1" cy="514.6" r="5.2"/>
		</g>
		<g>
			<circle class="st1" cx="566" cy="478.5" r="3.6"/>
		</g>
		<g>
			<circle class="st1" cx="464.7" cy="443.3" r="4.9"/>
		</g>
		<g>
			<circle class="st1" cx="548.3" cy="416.3" r="5.1"/>
		</g>
		<g>
			<circle class="st1" cx="558.6" cy="331.1" r="3"/>
		</g>
		<g>
			<circle class="st1" cx="469" cy="360.4" r="3.7"/>
		</g>
		<g>
			<circle class="st1" cx="519.6" cy="321.6" r="6.4"/>
		</g>
		<g>
			<circle class="st1" cx="540" cy="290.7" r="4.6"/>
		</g>
		<g>
			<circle class="st1" cx="565.5" cy="272.7" r="6.4"/>
		</g>
		<g>
			<circle class="st1" cx="580.8" cy="252.5" r="6.4"/>
		</g>
		<g>
			<circle class="st1" cx="574" cy="225.5" r="5.8"/>
		</g>
		<g>
			<circle class="st1" cx="490.2" cy="223.9" r="3.6"/>
		</g>
		<g>
			<circle class="st1" cx="503.1" cy="192.6" r="4.2"/>
		</g>
		<g>
			<circle class="st1" cx="567.7" cy="175.6" r="5.4"/>
		</g>
		<g>
			<circle class="st1" cx="462" cy="149.4" r="5.3"/>
		</g>
	</g>
	<g>
		<g>
			<circle class="st1" cx="56.4" cy="430.6" r="3.9"/>
		</g>
		<g>
			<circle class="st1" cx="145.7" cy="422.9" r="4.7"/>
		</g>
		<g>
			<circle class="st1" cx="128.1" cy="455.9" r="5.3"/>
		</g>
		<g>
			<circle class="st1" cx="138.7" cy="479.2" r="6.3"/>
		</g>
		<g>
			<circle class="st1" cx="28.6" cy="569.8" r="5.2"/>
		</g>
		<g>
			<circle class="st1" cx="67.5" cy="568.1" r="5.1"/>
		</g>
		<g>
			<circle class="st1" cx="115.5" cy="563.2" r="3.9"/>
		</g>
		<g>
			<circle class="st1" cx="181.9" cy="524.8" r="3.7"/>
		</g>
		<g>
			<circle class="st1" cx="122.7" cy="628.3" r="4.7"/>
		</g>
		<g>
			<circle class="st1" cx="162.3" cy="636.3" r="4.4"/>
		</g>
		<g>
			<circle class="st1" cx="235.4" cy="527.5" r="3.4"/>
		</g>
		<g>
			<circle class="st1" cx="158.5" cy="580.7" r="5.7"/>
		</g>
		<g>
			<circle class="st1" cx="261.6" cy="593" r="3.2"/>
		</g>
		<g>
			<circle class="st1" cx="281.3" cy="554.6" r="6.2"/>
		</g>
		<g>
			<circle class="st1" cx="290.4" cy="636.5" r="5.5"/>
		</g>
		<g>
			<circle class="st1" cx="306" cy="640.8" r="4.7"/>
		</g>
		<g>
			<circle class="st1" cx="309.2" cy="582.4" r="4.7"/>
		</g>
		<g>
			<circle class="st1" cx="349.3" cy="634" r="5.8"/>
		</g>
		<g>
			<circle class="st1" cx="134.3" cy="289.2" r="3.7"/>
		</g>
		<g>
			<circle class="st1" cx="101.7" cy="298.8" r="4.5"/>
		</g>
		<g>
			
				<ellipse transform="matrix(0.1688 -0.9856 0.9856 0.1688 -232.2074 787.3564)" class="st1" cx="350.7" cy="531.4" rx="4.7" ry="4.7"/>
		</g>
		<g>
			
				<ellipse transform="matrix(0.1688 -0.9856 0.9856 0.1688 -184.0275 785.3815)" class="st1" cx="373.7" cy="501.8" rx="5.3" ry="5.3"/>
		</g>
		<g>
			
				<ellipse transform="matrix(0.1688 -0.9856 0.9856 0.1688 -165.0419 758.3856)" class="st1" cx="367.1" cy="477.1" rx="6.3" ry="6.3"/>
		</g>
		<g>
			
				<ellipse transform="matrix(0.1688 -0.9856 0.9856 0.1688 -56.5032 729.3433)" class="st1" cx="404.2" cy="398.2" rx="3.9" ry="3.9"/>
		</g>
		<g>
			
				<ellipse transform="matrix(0.1688 -0.9856 0.9856 0.1688 -142.5444 680.5862)" class="st1" cx="332.3" cy="424.8" rx="3.7" ry="3.7"/>
		</g>
		<g>
			
				<ellipse transform="matrix(0.1688 -0.9856 0.9856 0.1688 11.1763 678.8397)" class="st1" cx="408.1" cy="332.8" rx="4.7" ry="4.7"/>
		</g>
		<g>
			
				<ellipse transform="matrix(0.1688 -0.9856 0.9856 0.1688 -5.7806 629.5889)" class="st1" cx="370.4" cy="318.2" rx="4.4" ry="4.4"/>
		</g>
		<g>
			<circle class="st1" cx="280" cy="413.1" r="3.4"/>
		</g>
		<g>
			
				<ellipse transform="matrix(0.1688 -0.9856 0.9856 0.1688 -65.1174 670.1105)" class="st1" cx="364.8" cy="373.7" rx="5.7" ry="5.7"/>
		</g>
		<g>
			<circle class="st1" cx="265.2" cy="344.1" r="3.2"/>
		</g>
		<g>
			<circle class="st1" cx="239.3" cy="378.7" r="6.2"/>
		</g>
		<g>
			<circle class="st1" cx="244.2" cy="296.4" r="5.5"/>
		</g>
		<g>
			<circle class="st1" cx="229.5" cy="289.5" r="4.7"/>
		</g>
		<g>
			
				<ellipse transform="matrix(0.1688 -0.9856 0.9856 0.1688 -161.6069 501.4486)" class="st1" cx="216.5" cy="346.5" rx="4.7" ry="4.7"/>
		</g>
		<g>
			<circle class="st1" cx="185.7" cy="288.9" r="5.8"/>
		</g>
	</g>
</g>
<g class="st0">
	<g>
		<g>
			<circle class="st1" cx="399.9" cy="32.5" r="3.7"/>
		</g>
		<g>
			<circle class="st1" cx="430.4" cy="17.6" r="4.5"/>
		</g>
		<g>
			<circle class="st1" cx="467.1" cy="41.5" r="4.5"/>
		</g>
		<g>
			<circle class="st1" cx="501" cy="10.5" r="5.5"/>
		</g>
		<g>
			<circle class="st1" cx="566" cy="44" r="5"/>
		</g>
	</g>
	<g>
		<g>
			<circle class="st1" cx="122.7" cy="35.8" r="4.7"/>
		</g>
		<g>
			<circle class="st1" cx="162.3" cy="43.8" r="4.4"/>
		</g>
		<g>
			<circle class="st1" cx="290.4" cy="44" r="5.5"/>
		</g>
		<g>
			<circle class="st1" cx="306" cy="48.3" r="4.7"/>
		</g>
		<g>
			<circle class="st1" cx="349.3" cy="41.5" r="5.8"/>
		</g>
	</g>
</g>
<g class="st0">
	<g>
		<circle class="st1" cx="493" cy="680.3" r="5.3"/>
	</g>
	<g>
		<circle class="st1" cx="457.6" cy="678.4" r="3.6"/>
	</g>
	<g>
		<circle class="st1" cx="188.4" cy="710" r="4.5"/>
	</g>
	<g>
		<circle class="st1" cx="351.4" cy="704.5" r="5.5"/>
	</g>
	<g>
		<circle class="st1" cx="142" cy="699" r="6.1"/>
	</g>
	<g>
		<circle class="st1" cx="290.3" cy="689.7" r="5.3"/>
	</g>
	<g>
		<circle class="st1" cx="128.2" cy="710" r="4.4"/>
	</g>
	<g>
		<circle class="st1" cx="242.2" cy="705.5" r="3"/>
	</g>
	<g>
		<circle class="st1" cx="70.3" cy="717.8" r="4"/>
	</g>
</g>
</svg>
